<svg xmlns="http://www.w3.org/2000/svg" xmlns:xlink="http://www.w3.org/1999/xlink" width="40" zoomAndPan="magnify" viewBox="0 0 30 30.000001" height="40" preserveAspectRatio="xMidYMid meet" version="1.0"><defs><g/></defs><g fill="#3355ff" fill-opacity="1"><g transform="translate(5.666582, 26.854848)"><g><path d="M 5.109375 -7.859375 L 5.109375 -10.875 L 11.03125 -10.875 C 11.539062 -10.875 12.128906 -10.890625 12.796875 -10.921875 C 13.472656 -10.960938 14.15625 -11.070312 14.84375 -11.25 C 15.53125 -11.4375 16.171875 -11.742188 16.765625 -12.171875 C 17.359375 -12.597656 17.832031 -13.1875 18.1875 -13.9375 C 18.550781 -14.6875 18.734375 -15.648438 18.734375 -16.828125 C 18.734375 -17.960938 18.550781 -18.890625 18.1875 -19.609375 C 17.832031 -20.335938 17.367188 -20.90625 16.796875 -21.3125 C 16.234375 -21.726562 15.617188 -22.019531 14.953125 -22.1875 C 14.296875 -22.363281 13.679688 -22.46875 13.109375 -22.5 C 12.546875 -22.539062 12.085938 -22.5625 11.734375 -22.5625 L 5.109375 -22.5625 L 5.109375 -25.546875 L 12.078125 -25.546875 C 13.566406 -25.546875 14.9375 -25.367188 16.1875 -25.015625 C 17.445312 -24.671875 18.535156 -24.128906 19.453125 -23.390625 C 20.367188 -22.660156 21.082031 -21.738281 21.59375 -20.625 C 22.113281 -19.519531 22.375 -18.21875 22.375 -16.71875 C 22.375 -14.832031 21.941406 -13.234375 21.078125 -11.921875 C 20.210938 -10.609375 18.921875 -9.601562 17.203125 -8.90625 C 15.484375 -8.207031 13.320312 -7.859375 10.71875 -7.859375 Z M 3.21875 0 L 3.21875 -25.546875 L 6.765625 -25.546875 L 6.765625 0 Z M 3.21875 0 "/></g></g></g><g fill="#f7c518" fill-opacity="1"><g transform="translate(0.48387, 26.85484)"><g><path d="M 3.21875 0 L 3.21875 -25.546875 L 12.546875 -25.546875 C 13.984375 -25.546875 15.289062 -25.414062 16.46875 -25.15625 C 17.644531 -24.894531 18.644531 -24.492188 19.46875 -23.953125 C 20.289062 -23.410156 20.921875 -22.71875 21.359375 -21.875 C 21.796875 -21.039062 22.015625 -20.046875 22.015625 -18.890625 C 22.015625 -17.878906 21.820312 -17 21.4375 -16.25 C 21.050781 -15.507812 20.429688 -14.898438 19.578125 -14.421875 C 18.734375 -13.941406 17.625 -13.585938 16.25 -13.359375 L 16.25 -12.921875 C 18.625 -12.722656 20.351562 -12.085938 21.4375 -11.015625 C 22.519531 -9.941406 23.0625 -8.515625 23.0625 -6.734375 C 23.0625 -5.285156 22.71875 -4.066406 22.03125 -3.078125 C 21.351562 -2.085938 20.3125 -1.328125 18.90625 -0.796875 C 17.5 -0.265625 15.6875 0 13.46875 0 Z M 6.65625 -3.015625 L 13.8125 -3.015625 C 14.664062 -3.015625 15.441406 -3.082031 16.140625 -3.21875 C 16.835938 -3.363281 17.441406 -3.59375 17.953125 -3.90625 C 18.472656 -4.21875 18.867188 -4.628906 19.140625 -5.140625 C 19.410156 -5.660156 19.546875 -6.296875 19.546875 -7.046875 C 19.546875 -7.710938 19.421875 -8.3125 19.171875 -8.84375 C 18.929688 -9.375 18.59375 -9.816406 18.15625 -10.171875 C 17.71875 -10.535156 17.175781 -10.835938 16.53125 -11.078125 C 15.882812 -11.328125 15.15625 -11.503906 14.34375 -11.609375 C 13.53125 -11.710938 12.644531 -11.765625 11.6875 -11.765625 L 6.65625 -11.765625 Z M 6.65625 -14.390625 L 11.03125 -14.390625 C 12.1875 -14.390625 13.222656 -14.460938 14.140625 -14.609375 C 15.054688 -14.753906 15.835938 -14.988281 16.484375 -15.3125 C 17.128906 -15.632812 17.625 -16.054688 17.96875 -16.578125 C 18.320312 -17.109375 18.5 -17.75 18.5 -18.5 C 18.5 -19.25 18.34375 -19.878906 18.03125 -20.390625 C 17.726562 -20.910156 17.296875 -21.320312 16.734375 -21.625 C 16.179688 -21.9375 15.507812 -22.171875 14.71875 -22.328125 C 13.9375 -22.484375 13.066406 -22.5625 12.109375 -22.5625 L 6.65625 -22.5625 Z M 6.65625 -14.390625 "/></g></g></g></svg>